<?xml version="1.0" encoding="utf-8"?>
<!-- Generator: Adobe Adobe Illustrator 28.6.0, SVG Export Plug-In . SVG Version: 6.00 Build 0)  -->
<svg version="1.1"
	 id="svg5" xmlns:svg="http://www.w3.org/2000/svg" xmlns:sodipodi="http://sodipodi.sourceforge.net/DTD/sodipodi-0.dtd" xmlns:inkscape="http://www.inkscape.org/namespaces/inkscape" inkscape:export-filename="phi_sch_42x255..svg" inkscape:export-xdpi="264.64777" inkscape:export-ydpi="264.64777" inkscape:version="1.2.2 (732a01da63, 2022-12-09)" sodipodi:docname="preventivehealth_.apptscheduling1.svg"
	 xmlns="http://www.w3.org/2000/svg" xmlns:xlink="http://www.w3.org/1999/xlink" x="0px" y="0px" viewBox="0 0 561.7 56.2"
	 style="enable-background:new 0 0 561.7 56.2;" xml:space="preserve">
<style type="text/css">
	.st0{fill:#FFFFFF;}
</style>
<sodipodi:namedview  bordercolor="#000000" borderopacity="0.25" id="namedview7" inkscape:current-layer="layer1" inkscape:cx="49.201297" inkscape:cy="15.986976" inkscape:deskcolor="#d1d1d1" inkscape:document-units="mm" inkscape:pagecheckerboard="0" inkscape:pageopacity="0.0" inkscape:showpageshadow="2" inkscape:window-height="1017" inkscape:window-maximized="1" inkscape:window-width="1920" inkscape:window-x="-8" inkscape:window-y="-8" inkscape:zoom="7.2559063" pagecolor="#ffffff" showgrid="false">
	</sodipodi:namedview>
<g id="layer1" transform="translate(-43.578142,-144.29701)" inkscape:groupmode="layer" inkscape:label="Layer 1">
	<g id="g1895">
		<g id="text1016">
			<path id="path2357" class="st0" d="M102.6,185c0,6.8-0.4,7.3-3.7,7.9l-2,0.4c-0.8,0.4-0.7,2,0.1,2.5c3.9-0.1,7.4-0.2,10.9-0.2
				s7.1,0.1,11.1,0.2c0.8-0.4,0.8-2.1,0-2.5l-2.3-0.4c-3.3-0.5-3.7-1.1-3.7-7.9v-30.7c0-2.9,0.1-3.7,2.8-3.7c6.6,0,9.3,5.8,9.3,11.2
				s-1.2,9.7-7.3,11.6c-0.5,0.4-0.4,1.6,0.2,2c0.8,0.1,1.5,0.1,2.3,0.1c3.9,0,15.9-1.7,15.9-13.7c0-7.1-4.4-10.9-8.9-12.6
				c-3.1-1.2-7.1-1.9-13.3-1.9c-6.3,0-12,0.3-16.8,0.7c-0.8,0.5-0.8,2.1-0.1,2.5l2.3,0.3c3.1,0.4,3.2,1.2,3.2,8.6V185z"/>
			<path id="path2354" class="st0" d="M142,187.1c0,5.1-0.3,5.8-2.7,6l-1.4,0.1c-0.6,0.4-0.6,2.1,0.1,2.5c2.4-0.1,5.6-0.2,8.6-0.2
				c3.4,0,6.3,0.1,9.8,0.2c0.7-0.4,0.7-2.1,0.1-2.5l-2.3-0.2c-2.4-0.2-2.7-0.8-2.7-5.9V176c0-2.8,0.4-4.4,1.4-4.4
				c0.4,0,1.1,0.1,2.8,1.5c0.9,0.9,1.8,1.3,2.8,1.3c2.3,0,4.7-1.4,4.7-4.7c0-2.8-2-4.3-4-4.3c-3.1,0-5.2,2.4-7.1,3.6
				c-0.6-0.1-0.7-0.4-0.7-0.9c0-0.7,0.1-1.7,0.3-3.1c-0.3-0.4-0.7-0.7-1.3-0.7c-2.3,1.5-7.3,3.4-10.6,4.4c-0.5,0.4-0.5,1.7,0,2.2
				l1,0.7c1.4,0.9,1.4,1.7,1.4,4.7L142,187.1z"/>
			<path id="path2351" class="st0" d="M188.6,178.3c2.3,0,2.6-1,2.6-2.4c0-5.6-4.1-10.5-11.7-10.5c-9.1,0-15.7,7.1-15.7,16.3
				c0,7.9,5.3,14.9,15.1,14.9c4.4,0,9.8-2.1,12.7-8.3c0-1.2-1.1-1.8-1.9-1.7c-2,3.4-4.7,3.8-6.8,3.8c-6.8,0-10.3-5.3-10.3-10.8
				c0-1.2,0.1-1.3,1.8-1.3H188.6z M176.7,175.1c-2.3,0-3.4-0.1-3.4-1.1c0-2.3,2.6-5.2,5.7-5.2c2.5,0,3.9,1.6,3.9,4
				c0,0.7-0.1,1.5-0.5,1.7c-0.8,0.5-2,0.7-3,0.7L176.7,175.1z"/>
			<path id="path2348" class="st0" d="M193.2,169.1c1.8,0.4,2.3,1,4,4.6c4.6,9.7,6.1,13.2,9.9,22.4c0.4,0.3,1.1,0.5,1.7,0.5
				c0.7,0,1.3-0.2,1.7-0.5c3.4-7.8,6.6-15.6,10.4-23.1c1.5-2.8,2-3.6,4.2-4l1.2-0.2c0.5-0.4,0.7-2.2-0.1-2.5
				c-1.6,0.1-3.3,0.2-5.6,0.2c-2.1,0-3.6-0.1-6-0.2c-0.7,0.4-0.7,2.1-0.1,2.5l1,0.2c1.2,0.3,1.7,0.5,1.7,0.9s-0.1,1.1-0.4,1.8
				c-1.5,4.4-3.4,8.3-5,11.9c-1.5-3.5-3.1-7.3-4.6-11.3c-0.4-1.1-0.7-2.1-0.7-2.5s0.4-0.5,1.2-0.7l1.2-0.3c0.4-0.4,0.5-2.2-0.1-2.5
				c-2.7,0.1-5.4,0.2-8.1,0.2c-3.9,0-6.3-0.1-9-0.2c-0.9,0.3-0.9,2-0.2,2.5L193.2,169.1z"/>
			<path id="path2345" class="st0" d="M250.3,178.3c2.3,0,2.6-1,2.6-2.4c0-5.6-4.1-10.5-11.7-10.5c-9.1,0-15.7,7.1-15.7,16.3
				c0,7.9,5.3,14.9,15.1,14.9c4.4,0,9.8-2.1,12.7-8.3c0-1.2-1.1-1.8-1.9-1.7c-2,3.4-4.7,3.8-6.8,3.8c-6.8,0-10.3-5.3-10.3-10.8
				c0-1.2,0.1-1.3,1.8-1.3H250.3z M238.4,175.1c-2.3,0-3.4-0.1-3.4-1.1c0-2.3,2.6-5.2,5.7-5.2c2.5,0,3.9,1.6,3.9,4
				c0,0.7-0.1,1.5-0.5,1.7c-0.8,0.5-2,0.7-3,0.7L238.4,175.1z"/>
			<path id="path2342" class="st0" d="M259.9,187.1c0,5.1-0.3,5.7-2.9,6l-1.2,0.1c-0.6,0.4-0.6,2.1,0.1,2.5c2.5-0.1,5.5-0.2,8.6-0.2
				c3.5,0,5.8,0.1,8.1,0.2c0.7-0.4,0.7-2.1,0.1-2.5l-1.2-0.1c-1.8-0.2-2.1-0.9-2.1-4.9v-13c0-1.3,0.1-2.2,0.6-2.7
				c0.6-0.8,2-1.7,4.1-1.7c3.6,0,5.1,2.3,5.1,5.2v12.3c0,4-0.3,4.5-2,4.8l-1.3,0.2c-0.6,0.4-0.6,2.1,0.1,2.5c2.1-0.1,5-0.2,7.9-0.2
				c3.5,0,6.6,0.1,8.8,0.2c0.7-0.4,0.7-2.1,0.1-2.5l-1.2-0.1c-2.6-0.3-2.9-0.9-2.9-6v-12.5c0-5-3.1-9.2-9.1-9.2
				c-3.4,0-6.8,2-8.4,2.9c-0.4,0.2-1.2,0.6-1.4,0.6c-0.2,0-0.4-0.1-0.4-0.6s0.2-2.3,0.2-3.3c-0.3-0.4-0.7-0.7-1.3-0.7
				c-2.1,1.3-7.4,3.3-10.8,4.2c-0.5,0.4-0.5,1.7,0,2.2l1,0.7c1.4,0.9,1.4,1.7,1.4,4.7L259.9,187.1z"/>
			<path id="path2339" class="st0" d="M316.5,170.3c0.7-0.4,0.9-1.7,0.9-2.5c0-0.7-0.2-1.1-0.6-1.4h-6.5c-1.3,0-1.4-0.1-1.4-1.5
				v-5.5c-0.4-0.6-1.7-0.7-2.2-0.4c-2.3,3.2-4.1,4.7-5.4,5.7c-1.7,1.2-3.8,2.5-6,3.3c-0.6,0.5-0.4,2,0.4,2.3h2.3
				c1.3,0,1.4,0.1,1.4,1.7v16.2c0,4.8,2.1,8.3,8.2,8.3c4.5,0,8.4-2,10.5-4.2c0.1-0.9-0.3-1.7-1-1.9c-0.9,0.6-2,1.1-3.1,1.1
				c-5.1,0-5.1-4.5-5.1-8.6V172c0-1.6,0.1-1.7,1-1.7H316.5z"/>
			<path id="path2336" class="st0" d="M332.9,173.7c0-3.3,0.1-6.5,0.2-8.7c-0.3-0.4-0.7-0.7-1.3-0.7c-2.2,1.3-7.4,3.3-10.8,4.2
				c-0.5,0.4-0.5,1.7,0,2.2l1,0.7c1.4,0.9,1.4,1.7,1.4,4.7v11c0,5.1-0.3,5.8-2.7,6l-1.4,0.1c-0.6,0.4-0.6,2.1,0.1,2.5
				c2.4-0.1,5.5-0.2,8.7-0.2c3.4,0,6.2,0.1,8.7,0.2c0.7-0.4,0.7-2.1,0.1-2.5l-1.4-0.1c-2.4-0.2-2.7-0.9-2.7-6L332.9,173.7z
				 M328.4,149c-2.9,0-5.5,2.1-5.5,5.3c0,3,1.9,5.2,5.1,5.2c2.8,0,5.5-1.8,5.5-5.3C333.5,151.3,331.5,149,328.4,149z"/>
			<path id="path2333" class="st0" d="M339.3,169.1c1.8,0.4,2.3,1,4,4.6c4.6,9.7,6.1,13.2,9.9,22.4c0.4,0.3,1.1,0.5,1.7,0.5
				c0.7,0,1.3-0.2,1.7-0.5c3.4-7.8,6.6-15.6,10.4-23.1c1.5-2.8,2-3.6,4.2-4l1.2-0.2c0.5-0.4,0.7-2.2-0.1-2.5
				c-1.6,0.1-3.3,0.2-5.6,0.2c-2.1,0-3.6-0.1-6-0.2c-0.7,0.4-0.7,2.1-0.1,2.5l1,0.2c1.2,0.3,1.7,0.5,1.7,0.9s-0.1,1.1-0.4,1.8
				c-1.5,4.4-3.4,8.3-5,11.9c-1.5-3.5-3.1-7.3-4.6-11.3c-0.4-1.1-0.7-2.1-0.7-2.5s0.4-0.5,1.2-0.7l1.2-0.3c0.4-0.4,0.5-2.2-0.1-2.5
				c-2.7,0.1-5.4,0.2-8.1,0.2c-3.9,0-6.3-0.1-9-0.2c-0.9,0.3-0.9,2-0.2,2.5L339.3,169.1z"/>
			<path id="path2330" class="st0" d="M396.4,178.3c2.3,0,2.6-1,2.6-2.4c0-5.6-4.1-10.5-11.7-10.5c-9.1,0-15.7,7.1-15.7,16.3
				c0,7.9,5.3,14.9,15.1,14.9c4.4,0,9.8-2.1,12.7-8.3c0-1.2-1.1-1.8-1.9-1.7c-2,3.4-4.7,3.8-6.8,3.8c-6.8,0-10.3-5.3-10.3-10.8
				c0-1.2,0.1-1.3,1.8-1.3H396.4z M384.5,175.1c-2.3,0-3.4-0.1-3.4-1.1c0-2.3,2.6-5.2,5.7-5.2c2.5,0,3.9,1.6,3.9,4
				c0,0.7-0.1,1.5-0.5,1.7c-0.8,0.5-2,0.7-3,0.7L384.5,175.1z"/>
		</g>
		<g id="text1020">
			<path id="path2327" class="st0" d="M439.2,173.3c3.1,0,3.1,0.1,3.1,2.1v10.5c0,6.8-0.4,7.5-3.7,7.9L437,194
				c-0.6,0.4-0.6,2.1,0,2.5c3.5-0.1,7.1-0.2,10.7-0.2c3.4,0,6.9,0.1,10.6,0.2c0.6-0.4,0.6-2.1,0-2.5l-1.7-0.3
				c-3.4-0.6-3.8-1.1-3.8-7.9v-27.1c0-6.8,0.4-7.4,3.8-7.9l1.5-0.2c0.6-0.4,0.6-2.1,0-2.5c-3.4,0.1-6.7,0.2-10.3,0.2
				c-3.5,0-7.1-0.1-11.1-0.2c-0.6,0.4-0.6,2.1,0,2.5l2,0.3c3.4,0.5,3.7,1.1,3.7,7.9v8.4c0,2.1,0,2.2-3.1,2.2H424
				c-3,0-3.1-0.1-3.1-2.2v-8.4c0-6.8,0.4-7.5,3.6-7.9l1.5-0.2c0.6-0.4,0.6-2.1,0-2.5c-3.2,0.1-6.8,0.2-10.1,0.2
				c-3.5,0-7.3-0.1-10.9-0.2c-0.6,0.4-0.6,2.1,0,2.5l1.7,0.2c3.4,0.4,3.7,1.2,3.7,7.9v27.1c0,6.8-0.4,7.5-3.7,7.9L405,194
				c-0.6,0.4-0.6,2.1,0,2.5c3.7-0.1,7.4-0.2,10.9-0.2c3.3,0,6.9,0.1,11.1,0.2c0.6-0.4,0.6-2.1,0-2.5l-2.3-0.3
				c-3.3-0.4-3.7-1.1-3.7-7.9v-10.5c0-2,0.1-2.1,3.1-2.1L439.2,173.3z"/>
			<path id="path2324" class="st0" d="M486.7,179.1c2.3,0,2.6-1,2.6-2.4c0-5.6-4.1-10.5-11.7-10.5c-9.1,0-15.7,7.1-15.7,16.3
				c0,7.9,5.3,14.9,15.1,14.9c4.4,0,9.8-2.1,12.7-8.3c0-1.2-1.1-1.8-1.9-1.7c-2,3.4-4.7,3.8-6.8,3.8c-6.8,0-10.3-5.3-10.3-10.8
				c0-1.2,0.1-1.3,1.8-1.3H486.7z M474.9,175.9c-2.3,0-3.4-0.1-3.4-1.1c0-2.3,2.6-5.2,5.7-5.2c2.5,0,3.9,1.6,3.9,4
				c0,0.7-0.1,1.5-0.5,1.7c-0.8,0.5-2,0.7-3,0.7L474.9,175.9L474.9,175.9z"/>
			<path id="path2321" class="st0" d="M517.8,176.8c0.4-7.5-3.2-10.6-9.3-10.6c-5.2,0-9.8,2.5-12.2,4.4c-1.7,1.4-3.5,3.7-3.5,5.6
				c0,1,0.4,1.8,1.7,1.8c1.3,0,4.2-0.9,5.2-1.7c0.7-0.5,1.1-1.2,1.2-2.3c0.5-3.1,2-4.2,3.8-4.2c3.1,0,4.2,3.5,4.2,6.3
				c0,0.9-0.1,1.7-0.1,2.5c-0.1,0.6-0.4,1.1-1.7,1.5c-2,0.6-4.1,1.2-6.8,2c-5.3,1.6-7.6,3.9-7.6,7.6c0,5.1,3.9,7.6,8.2,7.6
				c2.7,0,4.9-1.4,6.2-2.3c0.7-0.5,1.2-0.8,1.5-0.8s0.7,0.1,1.2,0.6c2,1.7,3.6,2.5,6.1,2.5c4.2,0,7.6-2.8,8.4-3.9
				c0.2-0.7-0.2-1.5-0.9-1.7c-1.2,0.7-1.9,0.9-2.8,0.9c-1.5,0-3.6-1.3-3.3-6.3L517.8,176.8z M508.4,189.1c-0.1,2.3-0.5,3.6-2.8,3.6
				c-2,0-3.7-2-3.7-4.4c0-3.4,2.8-4.7,6.1-5.1c0.5-0.1,0.6,0.1,0.5,1.3L508.4,189.1z"/>
			<path id="path2318" class="st0" d="M528,187.9c0,5.1-0.3,5.8-2.7,6l-1.4,0.1c-0.6,0.4-0.6,2.1,0.1,2.5c2.5-0.1,5.6-0.2,8.7-0.2
				c3.3,0,6.3,0.1,8.7,0.2c0.7-0.4,0.7-2.1,0.1-2.5l-1.2-0.1c-2.5-0.3-2.8-0.9-2.8-6v-32.5c0-4.6,0.1-7.6,0.2-10.6
				c-0.3-0.4-0.8-0.5-1.2-0.5c-3.6,1.6-8,3.4-11.1,4.1c-0.5,0.4-0.5,1.7,0,2.2l1.2,0.7c1.5,0.9,1.5,1.7,1.5,4.6L528,187.9z"/>
			<path id="path2315" class="st0" d="M565.4,171.2c0.7-0.4,0.9-1.7,0.9-2.5c0-0.7-0.2-1.1-0.6-1.4h-6.5c-1.3,0-1.4-0.1-1.4-1.5
				v-5.5c-0.4-0.6-1.7-0.7-2.2-0.4c-2.3,3.2-4.1,4.7-5.4,5.7c-1.7,1.2-3.8,2.5-6,3.3c-0.6,0.5-0.4,2,0.4,2.3h2.3
				c1.3,0,1.4,0.1,1.4,1.7v16.2c0,4.8,2.1,8.3,8.2,8.3c4.5,0,8.4-2,10.5-4.2c0.1-0.9-0.3-1.7-1-1.9c-0.9,0.6-2,1.1-3.1,1.1
				c-5.1,0-5.1-4.5-5.1-8.6v-10.9c0-1.6,0.1-1.7,1-1.7L565.4,171.2z"/>
			<path id="path2312" class="st0" d="M572.1,187.9c0,5.1-0.3,5.7-2.7,6l-1.3,0.1c-0.6,0.4-0.6,2.1,0.1,2.5c2.5-0.1,5.5-0.2,8.5-0.2
				c3.5,0,5.8,0.1,8.1,0.2c0.7-0.4,0.7-2.1,0.1-2.5l-1.3-0.2c-1.7-0.3-2-0.8-2-4.8v-13c0-1.3,0.1-2.2,0.6-2.7c0.6-0.8,2-1.7,4.1-1.7
				c3.6,0,5.1,2.3,5.1,4.9V189c0,4-0.3,4.5-2,4.8L588,194c-0.6,0.4-0.6,2.1,0.1,2.5c1.6-0.1,4.7-0.2,7.9-0.2c3.5,0,6.6,0.1,8.8,0.2
				c0.7-0.4,0.7-2.1,0.1-2.5l-1.2-0.1c-2.6-0.3-2.9-0.9-2.9-6v-12.5c0-5-3.1-9.2-9.2-9.2c-3.6,0-6.8,1.8-8.4,2.9
				c-0.7,0.4-1.1,0.6-1.2,0.6c-0.4,0-0.5-0.2-0.5-0.9v-13.4c0-4.6,0.1-7.6,0.2-10.6c-0.3-0.4-0.8-0.5-1.2-0.5
				c-3.9,1.6-8.1,3.4-11.1,4.1c-0.5,0.4-0.5,1.7,0,2.2l1.2,0.7c1.5,0.9,1.5,1.7,1.5,4.6L572.1,187.9z"/>
		</g>
		<g id="g1140" transform="translate(0.95949742,-0.01370711)">
			<path id="path2309" class="st0" d="M58.5,147.9h16.4v48H58.5V147.9z"/>
			<path id="path2306" class="st0" d="M90.7,165v16.4h-48V165H90.7z"/>
		</g>
	</g>
</g>
</svg>
