<?xml version="1.0" encoding="utf-8"?>
<!-- Generator: Adobe Adobe Illustrator 28.6.0, SVG Export Plug-In . SVG Version: 6.00 Build 0)  -->
<svg version="1.1"
	 id="svg5" xmlns:sodipodi="http://sodipodi.sourceforge.net/DTD/sodipodi-0.dtd" xmlns:inkscape="http://www.inkscape.org/namespaces/inkscape" xmlns:svg="http://www.w3.org/2000/svg" inkscape:export-filename="phi_sch_42x255..svg" inkscape:export-xdpi="264.64777" inkscape:export-ydpi="264.64777" inkscape:version="1.2.2 (732a01da63, 2022-12-09)" sodipodi:docname="preventivehealth_.apptscheduling1.svg"
	 xmlns="http://www.w3.org/2000/svg" xmlns:xlink="http://www.w3.org/1999/xlink" x="0px" y="0px" viewBox="0 0 561.7 56.2"
	 style="enable-background:new 0 0 561.7 56.2;" xml:space="preserve">
<style type="text/css">
	.st0{fill:#FFFFFF;}
	.st1{fill:#83FF0F;}
</style>
<sodipodi:namedview  bordercolor="#000000" borderopacity="0.25" id="namedview7" inkscape:current-layer="layer1" inkscape:cx="49.201297" inkscape:cy="15.986976" inkscape:deskcolor="#d1d1d1" inkscape:document-units="mm" inkscape:pagecheckerboard="0" inkscape:pageopacity="0.0" inkscape:showpageshadow="2" inkscape:window-height="1017" inkscape:window-maximized="1" inkscape:window-width="1920" inkscape:window-x="-8" inkscape:window-y="-8" inkscape:zoom="7.2559063" pagecolor="#ffffff" showgrid="false">
	</sodipodi:namedview>
<g id="layer1" transform="translate(-43.578142,-144.29701)" inkscape:groupmode="layer" inkscape:label="Layer 1">
	<g id="g1895">
		<g id="text1016">
			<path id="path2357" class="st0" d="M144.6,182.7c0,5.5-0.3,5.9-3,6.3l-1.6,0.3c-0.6,0.3-0.6,1.6,0.1,2c3.1-0.1,5.9-0.2,8.7-0.2
				c2.8,0,5.7,0.1,8.9,0.2c0.6-0.3,0.6-1.7,0-2l-1.8-0.3c-2.6-0.4-3-0.9-3-6.3v-24.6c0-2.3,0.1-3,2.2-3c5.3,0,7.5,4.7,7.5,9
				c0,4.3-1,7.8-5.9,9.3c-0.4,0.3-0.3,1.3,0.2,1.6c0.6,0.1,1.2,0.1,1.8,0.1c3.1,0,12.8-1.4,12.8-11c0-5.7-3.5-8.7-7.1-10.1
				c-2.5-1-5.7-1.5-10.7-1.5c-5.1,0-9.6,0.2-13.5,0.6c-0.6,0.4-0.6,1.7-0.1,2l1.8,0.2c2.5,0.3,2.6,1,2.6,6.9V182.7z"/>
			<path id="path2354" class="st0" d="M176.2,184.4c0,4.1-0.2,4.7-2.2,4.8l-1.1,0.1c-0.5,0.3-0.5,1.7,0.1,2c1.9-0.1,4.5-0.2,6.9-0.2
				c2.7,0,5.1,0.1,7.9,0.2c0.6-0.3,0.6-1.7,0.1-2l-1.8-0.2c-1.9-0.2-2.2-0.6-2.2-4.7v-8.9c0-2.2,0.3-3.5,1.1-3.5
				c0.3,0,0.9,0.1,2.2,1.2c0.7,0.7,1.4,1,2.2,1c1.8,0,3.8-1.1,3.8-3.8c0-2.2-1.6-3.4-3.2-3.4c-2.5,0-4.2,1.9-5.7,2.9
				c-0.5-0.1-0.6-0.3-0.6-0.7c0-0.6,0.1-1.4,0.2-2.5c-0.2-0.3-0.6-0.6-1-0.6c-1.8,1.2-5.9,2.7-8.5,3.5c-0.4,0.3-0.4,1.4,0,1.8
				l0.8,0.6c1.1,0.7,1.1,1.4,1.1,3.8L176.2,184.4z"/>
			<path id="path2351" class="st0" d="M213.5,177.3c1.8,0,2.1-0.8,2.1-1.9c0-4.5-3.3-8.4-9.4-8.4c-7.3,0-12.6,5.7-12.6,13.1
				c0,6.3,4.3,12,12.1,12c3.5,0,7.9-1.7,10.2-6.7c0-1-0.9-1.4-1.5-1.4c-1.6,2.7-3.8,3-5.5,3c-5.5,0-8.3-4.3-8.3-8.7c0-1,0.1-1,1.4-1
				H213.5z M204,174.8c-1.8,0-2.7-0.1-2.7-0.9c0-1.8,2.1-4.2,4.6-4.2c2,0,3.1,1.3,3.1,3.2c0,0.6-0.1,1.2-0.4,1.4
				c-0.6,0.4-1.6,0.6-2.4,0.6L204,174.8z"/>
			<path id="path2348" class="st0" d="M217.2,169.9c1.4,0.3,1.8,0.8,3.2,3.7c3.7,7.8,4.9,10.6,7.9,18c0.3,0.2,0.9,0.4,1.4,0.4
				c0.6,0,1-0.2,1.4-0.4c2.7-6.3,5.3-12.5,8.3-18.5c1.2-2.2,1.6-2.9,3.4-3.2l1-0.2c0.4-0.3,0.6-1.8-0.1-2c-1.3,0.1-2.6,0.2-4.5,0.2
				c-1.7,0-2.9-0.1-4.8-0.2c-0.6,0.3-0.6,1.7-0.1,2l0.8,0.2c1,0.2,1.4,0.4,1.4,0.7c0,0.3-0.1,0.9-0.3,1.4c-1.2,3.5-2.7,6.7-4,9.5
				c-1.2-2.8-2.5-5.9-3.7-9.1c-0.3-0.9-0.6-1.7-0.6-2s0.3-0.4,1-0.6l1-0.2c0.3-0.3,0.4-1.8-0.1-2c-2.2,0.1-4.3,0.2-6.5,0.2
				c-3.1,0-5.1-0.1-7.2-0.2c-0.7,0.2-0.7,1.6-0.2,2L217.2,169.9z"/>
			<path id="path2345" class="st0" d="M263,177.3c1.8,0,2.1-0.8,2.1-1.9c0-4.5-3.3-8.4-9.4-8.4c-7.3,0-12.6,5.7-12.6,13.1
				c0,6.3,4.3,12,12.1,12c3.5,0,7.9-1.7,10.2-6.7c0-1-0.9-1.4-1.5-1.4c-1.6,2.7-3.8,3-5.5,3c-5.5,0-8.3-4.3-8.3-8.7c0-1,0.1-1,1.4-1
				H263z M253.5,174.8c-1.8,0-2.7-0.1-2.7-0.9c0-1.8,2.1-4.2,4.6-4.2c2,0,3.1,1.3,3.1,3.2c0,0.6-0.1,1.2-0.4,1.4
				c-0.6,0.4-1.6,0.6-2.4,0.6L253.5,174.8z"/>
			<path id="path2342" class="st0" d="M270.7,184.4c0,4.1-0.2,4.6-2.3,4.8l-1,0.1c-0.5,0.3-0.5,1.7,0.1,2c2-0.1,4.4-0.2,6.9-0.2
				c2.8,0,4.7,0.1,6.5,0.2c0.6-0.3,0.6-1.7,0.1-2l-1-0.1c-1.4-0.2-1.7-0.7-1.7-3.9v-10.4c0-1,0.1-1.8,0.5-2.2
				c0.5-0.6,1.6-1.4,3.3-1.4c2.9,0,4.1,1.8,4.1,4.2v9.9c0,3.2-0.2,3.6-1.6,3.9l-1,0.2c-0.5,0.3-0.5,1.7,0.1,2c1.7-0.1,4-0.2,6.3-0.2
				c2.8,0,5.3,0.1,7.1,0.2c0.6-0.3,0.6-1.7,0.1-2l-1-0.1c-2.1-0.2-2.3-0.7-2.3-4.8v-10c0-4-2.5-7.4-7.3-7.4c-2.7,0-5.5,1.6-6.7,2.3
				c-0.3,0.2-1,0.5-1.1,0.5c-0.2,0-0.3-0.1-0.3-0.5s0.2-1.8,0.2-2.6c-0.2-0.3-0.6-0.6-1-0.6c-1.7,1-5.9,2.6-8.7,3.4
				c-0.4,0.3-0.4,1.4,0,1.8l0.8,0.6c1.1,0.7,1.1,1.4,1.1,3.8L270.7,184.4z"/>
			<path id="path2339" class="st0" d="M316.1,170.9c0.6-0.3,0.7-1.4,0.7-2c0-0.6-0.2-0.9-0.5-1.1h-5.2c-1,0-1.1-0.1-1.1-1.2v-4.4
				c-0.3-0.5-1.4-0.6-1.8-0.3c-1.8,2.6-3.3,3.8-4.3,4.6c-1.4,1-3,2-4.8,2.6c-0.5,0.4-0.3,1.6,0.3,1.8h1.8c1,0,1.1,0.1,1.1,1.4v13
				c0,3.9,1.7,6.7,6.6,6.7c3.6,0,6.7-1.6,8.4-3.4c0.1-0.7-0.2-1.4-0.8-1.5c-0.7,0.5-1.6,0.9-2.5,0.9c-4.1,0-4.1-3.6-4.1-6.9v-8.7
				c0-1.3,0.1-1.4,0.8-1.4H316.1z"/>
			<path id="path2336" class="st0" d="M329.3,173.6c0-2.6,0.1-5.2,0.2-7c-0.2-0.3-0.6-0.6-1-0.6c-1.8,1-5.9,2.6-8.7,3.4
				c-0.4,0.3-0.4,1.4,0,1.8l0.8,0.6c1.1,0.7,1.1,1.4,1.1,3.8v8.8c0,4.1-0.2,4.7-2.2,4.8l-1.1,0.1c-0.5,0.3-0.5,1.7,0.1,2
				c1.9-0.1,4.4-0.2,7-0.2c2.7,0,5,0.1,7,0.2c0.6-0.3,0.6-1.7,0.1-2l-1.1-0.1c-1.9-0.2-2.2-0.7-2.2-4.8L329.3,173.6z M325.7,153.8
				c-2.3,0-4.4,1.7-4.4,4.3c0,2.4,1.5,4.2,4.1,4.2c2.2,0,4.4-1.4,4.4-4.3C329.8,155.7,328.2,153.8,325.7,153.8z"/>
			<path id="path2333" class="st0" d="M334.4,169.9c1.4,0.3,1.8,0.8,3.2,3.7c3.7,7.8,4.9,10.6,7.9,18c0.3,0.2,0.9,0.4,1.4,0.4
				c0.6,0,1-0.2,1.4-0.4c2.7-6.3,5.3-12.5,8.3-18.5c1.2-2.2,1.6-2.9,3.4-3.2l1-0.2c0.4-0.3,0.6-1.8-0.1-2c-1.3,0.1-2.6,0.2-4.5,0.2
				c-1.7,0-2.9-0.1-4.8-0.2c-0.6,0.3-0.6,1.7-0.1,2l0.8,0.2c1,0.2,1.4,0.4,1.4,0.7c0,0.3-0.1,0.9-0.3,1.4c-1.2,3.5-2.7,6.7-4,9.5
				c-1.2-2.8-2.5-5.9-3.7-9.1c-0.3-0.9-0.6-1.7-0.6-2s0.3-0.4,1-0.6l1-0.2c0.3-0.3,0.4-1.8-0.1-2c-2.2,0.1-4.3,0.2-6.5,0.2
				c-3.1,0-5.1-0.1-7.2-0.2c-0.7,0.2-0.7,1.6-0.2,2L334.4,169.9z"/>
			<path id="path2330" class="st0" d="M380.2,177.3c1.8,0,2.1-0.8,2.1-1.9c0-4.5-3.3-8.4-9.4-8.4c-7.3,0-12.6,5.7-12.6,13.1
				c0,6.3,4.3,12,12.1,12c3.5,0,7.9-1.7,10.2-6.7c0-1-0.9-1.4-1.5-1.4c-1.6,2.7-3.8,3-5.5,3c-5.5,0-8.3-4.3-8.3-8.7c0-1,0.1-1,1.4-1
				H380.2z M370.7,174.8c-1.8,0-2.7-0.1-2.7-0.9c0-1.8,2.1-4.2,4.6-4.2c2,0,3.1,1.3,3.1,3.2c0,0.6-0.1,1.2-0.4,1.4
				c-0.6,0.4-1.6,0.6-2.4,0.6L370.7,174.8z"/>
		</g>
		<g id="text1020">
			<path id="path2327" class="st0" d="M414.6,173.3c2.5,0,2.5,0.1,2.5,1.7v8.4c0,5.5-0.3,6-3,6.3l-1.3,0.2c-0.5,0.3-0.5,1.7,0,2
				c2.8-0.1,5.7-0.2,8.6-0.2c2.7,0,5.5,0.1,8.5,0.2c0.5-0.3,0.5-1.7,0-2l-1.4-0.2c-2.7-0.5-3-0.9-3-6.3v-21.7c0-5.5,0.3-5.9,3-6.3
				l1.2-0.2c0.5-0.3,0.5-1.7,0-2c-2.7,0.1-5.4,0.2-8.3,0.2c-2.8,0-5.7-0.1-8.9-0.2c-0.5,0.3-0.5,1.7,0,2l1.6,0.2
				c2.7,0.4,3,0.9,3,6.3v6.7c0,1.7,0,1.8-2.5,1.8h-12.3c-2.4,0-2.5-0.1-2.5-1.8v-6.7c0-5.5,0.3-6,2.9-6.3l1.2-0.2
				c0.5-0.3,0.5-1.7,0-2c-2.6,0.1-5.5,0.2-8.1,0.2c-2.8,0-5.9-0.1-8.7-0.2c-0.5,0.3-0.5,1.7,0,2l1.4,0.2c2.7,0.3,3,1,3,6.3v21.7
				c0,5.5-0.3,6-3,6.3l-1.4,0.2c-0.5,0.3-0.5,1.7,0,2c3-0.1,5.9-0.2,8.7-0.2c2.6,0,5.5,0.1,8.9,0.2c0.5-0.3,0.5-1.7,0-2l-1.8-0.2
				c-2.6-0.3-3-0.9-3-6.3v-8.4c0-1.6,0.1-1.7,2.5-1.7L414.6,173.3z"/>
			<path id="path2324" class="st0" d="M452.7,178c1.8,0,2.1-0.8,2.1-1.9c0-4.5-3.3-8.4-9.4-8.4c-7.3,0-12.6,5.7-12.6,13.1
				c0,6.3,4.3,12,12.1,12c3.5,0,7.9-1.7,10.2-6.7c0-1-0.9-1.4-1.5-1.4c-1.6,2.7-3.8,3-5.5,3c-5.5,0-8.3-4.3-8.3-8.7c0-1,0.1-1,1.4-1
				H452.7z M443.2,175.4c-1.8,0-2.7-0.1-2.7-0.9c0-1.8,2.1-4.2,4.6-4.2c2,0,3.1,1.3,3.1,3.2c0,0.6-0.1,1.2-0.4,1.4
				c-0.6,0.4-1.6,0.6-2.4,0.6L443.2,175.4L443.2,175.4z"/>
			<path id="path2321" class="st0" d="M477.6,176.1c0.3-6-2.6-8.5-7.5-8.5c-4.2,0-7.9,2-9.8,3.5c-1.4,1.1-2.8,3-2.8,4.5
				c0,0.8,0.3,1.4,1.4,1.4s3.4-0.7,4.2-1.4c0.6-0.4,0.9-1,1-1.8c0.4-2.5,1.6-3.4,3-3.4c2.5,0,3.4,2.8,3.4,5.1c0,0.7-0.1,1.4-0.1,2
				c-0.1,0.5-0.3,0.9-1.4,1.2c-1.6,0.5-3.3,1-5.5,1.6c-4.3,1.3-6.1,3.1-6.1,6.1c0,4.1,3.1,6.1,6.6,6.1c2.2,0,3.9-1.1,5-1.8
				c0.6-0.4,1-0.6,1.2-0.6s0.6,0.1,1,0.5c1.6,1.4,2.9,2,4.9,2c3.4,0,6.1-2.2,6.7-3.1c0.2-0.6-0.2-1.2-0.7-1.4
				c-1,0.6-1.5,0.7-2.2,0.7c-1.2,0-2.9-1-2.6-5.1L477.6,176.1z M470.1,186c-0.1,1.8-0.4,2.9-2.2,2.9c-1.6,0-3-1.6-3-3.5
				c0-2.7,2.2-3.8,4.9-4.1c0.4-0.1,0.5,0.1,0.4,1L470.1,186z"/>
			<path id="path2318" class="st0" d="M485.8,185c0,4.1-0.2,4.7-2.2,4.8l-1.1,0.1c-0.5,0.3-0.5,1.7,0.1,2c2-0.1,4.5-0.2,7-0.2
				c2.6,0,5.1,0.1,7,0.2c0.6-0.3,0.6-1.7,0.1-2l-1-0.1c-2-0.2-2.2-0.7-2.2-4.8V159c0-3.7,0.1-6.1,0.2-8.5c-0.2-0.3-0.6-0.4-1-0.4
				c-2.9,1.3-6.4,2.7-8.9,3.3c-0.4,0.3-0.4,1.4,0,1.8l1,0.6c1.2,0.7,1.2,1.4,1.2,3.7L485.8,185z"/>
			<path id="path2315" class="st0" d="M515.8,171.6c0.6-0.3,0.7-1.4,0.7-2c0-0.6-0.2-0.9-0.5-1.1h-5.2c-1,0-1.1-0.1-1.1-1.2v-4.4
				c-0.3-0.5-1.4-0.6-1.8-0.3c-1.8,2.6-3.3,3.8-4.3,4.6c-1.4,1-3,2-4.8,2.6c-0.5,0.4-0.3,1.6,0.3,1.8h1.8c1,0,1.1,0.1,1.1,1.4v13
				c0,3.9,1.7,6.7,6.6,6.7c3.6,0,6.7-1.6,8.4-3.4c0.1-0.7-0.2-1.4-0.8-1.5c-0.7,0.5-1.6,0.9-2.5,0.9c-4.1,0-4.1-3.6-4.1-6.9V173
				c0-1.3,0.1-1.4,0.8-1.4L515.8,171.6z"/>
			<path id="path2312" class="st0" d="M521.2,185c0,4.1-0.2,4.6-2.2,4.8l-1,0.1c-0.5,0.3-0.5,1.7,0.1,2c2-0.1,4.4-0.2,6.8-0.2
				c2.8,0,4.7,0.1,6.5,0.2c0.6-0.3,0.6-1.7,0.1-2l-1-0.2c-1.4-0.2-1.6-0.6-1.6-3.9v-10.4c0-1,0.1-1.8,0.5-2.2
				c0.5-0.6,1.6-1.4,3.3-1.4c2.9,0,4.1,1.8,4.1,3.9v10c0,3.2-0.2,3.6-1.6,3.9l-1.1,0.2c-0.5,0.3-0.5,1.7,0.1,2
				c1.3-0.1,3.8-0.2,6.3-0.2c2.8,0,5.3,0.1,7.1,0.2c0.6-0.3,0.6-1.7,0.1-2l-1-0.1c-2.1-0.2-2.3-0.7-2.3-4.8v-10c0-4-2.5-7.4-7.4-7.4
				c-2.9,0-5.5,1.4-6.7,2.3c-0.6,0.3-0.9,0.5-1,0.5c-0.3,0-0.4-0.2-0.4-0.7V159c0-3.7,0.1-6.1,0.2-8.5c-0.2-0.3-0.6-0.4-1-0.4
				c-3.1,1.3-6.5,2.7-8.9,3.3c-0.4,0.3-0.4,1.4,0,1.8l1,0.6c1.2,0.7,1.2,1.4,1.2,3.7L521.2,185z"/>
		</g>
		<g id="g1140" transform="translate(0.95949742,-0.01370711)">
			<path id="path2309" class="st1" d="M109,152.9h13.2v38.5H109V152.9z"/>
			<path id="path2306" class="st1" d="M134.8,166.7v13.2H96.3v-13.2H134.8z"/>
		</g>
	</g>
</g>
</svg>
